# xmcd
#
# Track frame offsets:
#	150
#	15477
#	30985
#	48028
#	65667
#	80910
#	97532
#	112682
#	129578
#	145570
#	162162
#	178610
#	194018
#	210647
#	237388
#
# Disc length: 4440
#
# Revision: 2
# Processed by: cddbd v1.5.1PL0 Copyright (c) Steve Scherf et al.
# Submitted via: audiograbber 1.83.01
# Normalized: r1:DSETVAR1
#
DISCID=ba11560f
DTITLE=Various Artist - Goldene Schlagerparade 2/2003
DYEAR=2003
DGENRE=Volksmusik
TTITLE0=Styrina - Ich will Dich ganz oder gar nicht
TTITLE1=Wind - Wenn die Liege triumphiert
TTITLE2=Kristina Bach - Auf dünnen Eis getanzt
TTITLE3=Chris Roberts - Wenn du fühlst was ich fühl
TTITLE4=Papermoon - Doop Doop
TTITLE5=Tuesday - Du bist mein WEg
TTITLE6=Münchner Freiheit - Wieder und wieder
TTITLE7=Michelle - Bringst du mich heute Nach nach Hause
TTITLE8=Leonard - Wenn's Dich nicht gäb
TTITLE9=Andrea Jürgens - Wo ist dein Herz wenn du träumst
TTITLE10=Michael Hoffmann - Werd' immer von Dir träumen
TTITLE11=Petra Frey - Keiner kennt mich so wie Du
TTITLE12=Peter Lorenz - My Arms In meinen Armen
TTITLE13=Seer - Eiskristall
TTITLE14=Daten-CD - Daten-CD
EXTD=
EXTT0=
EXTT1=
EXTT2=
EXTT3=
EXTT4=
EXTT5=
EXTT6=
EXTT7=
EXTT8=
EXTT9=
EXTT10=
EXTT11=
EXTT12=
EXTT13=
EXTT14=
PLAYORDER=
